<?xml version="1.0" encoding="UTF-8" standalone="no"?>
<svg
   xmlns:dc="http://purl.org/dc/elements/1.1/"
   xmlns:cc="http://creativecommons.org/ns#"
   xmlns:rdf="http://www.w3.org/1999/02/22-rdf-syntax-ns#"
   xmlns:svg="http://www.w3.org/2000/svg"
   xmlns="http://www.w3.org/2000/svg"
   xmlns:sodipodi="http://sodipodi.sourceforge.net/DTD/sodipodi-0.dtd"
   xmlns:inkscape="http://www.inkscape.org/namespaces/inkscape"
   height="247.88pt"
   width="820.37pt"
   version="1.2"
   viewBox="0 0 820.37 247.88"
   id="svg64"
   sodipodi:docname="logo-bottega.svg"
   inkscape:version="0.92.4 (5da689c313, 2019-01-14)">
  <metadata
     id="metadata68">
    <rdf:RDF>
      <cc:Work
         rdf:about="">
        <dc:format>image/svg+xml</dc:format>
        <dc:type
           rdf:resource="http://purl.org/dc/dcmitype/StillImage" />
        <dc:title></dc:title>
      </cc:Work>
    </rdf:RDF>
  </metadata>
  <sodipodi:namedview
     pagecolor="#000000"
     bordercolor="#666666"
     borderopacity="1"
     objecttolerance="10"
     gridtolerance="10"
     guidetolerance="10"
     inkscape:pageopacity="1"
     inkscape:pageshadow="2"
     inkscape:window-width="1385"
     inkscape:window-height="740"
     id="namedview66"
     showgrid="false"
     inkscape:zoom="0.75331863"
     inkscape:cx="349.35124"
     inkscape:cy="67.23082"
     inkscape:window-x="129"
     inkscape:window-y="88"
     inkscape:window-maximized="0"
     inkscape:current-layer="g54" />
  <defs
     id="defs8">
    <clipPath
       id="clip1">
      <path
         d="m591 84h126v163.88h-126z"
         id="path2" />
    </clipPath>
    <clipPath
       id="clip2">
      <path
         d="m700 85h120.37v100h-120.37z"
         id="path5" />
    </clipPath>
  </defs>
  <g
     fill="#171716"
     id="g54"
     style="fill:#ffffff">
    <path
       d="m235.27 145.71c2.86-6.42 6.28-13.42 10.28-21 4-7.57 8.26-15.28 12.75-23.14 4.51-7.855 9.18-15.675 14.04-23.465 4.86-7.781 9.64-15.136 14.36-22.07 4.71-6.926 9.18-13.25 13.39-18.961 4.21-5.715 7.96-10.429 11.25-14.144 1.86-2.145 4.07-3.5 6.64-4.071 2.58-0.574 5.18-0.714 7.82-0.429 2.65 0.289 5.25 0.894 7.83 1.82 2.57 0.934 4.85 1.895 6.85 2.895-6.57 5.859-13.57 13.109-21 21.75-7.43 8.64-14.82 17.859-22.17 27.64-7.36 9.785-14.43 19.754-21.22 29.895-6.79 10.14-12.79 19.64-18 28.5s-9.36 16.71-12.43 23.57-4.6 11.86-4.6 15c-1.58-1.43-3.04-2.86-4.4-4.29-1.36-1.42-2.39-3-3.1-4.71-0.72-1.71-0.97-3.75-0.75-6.11 0.21-2.35 1.03-5.25 2.46-8.68zm-39.21-4.28c0.85-5.14 2.78-9.04 5.78-11.68s6.46-4.36 10.39-5.14c3.93-0.79 7.97-0.68 12.11 0.32s7.71 2.57 10.71 4.71c-3.85 2.29-7.03 5.25-9.53 8.9-2.5 3.64-4.32 7.5-5.46 11.57-1.15 4.07-1.54 8.25-1.18 12.53 0.35 4.29 1.53 8.22 3.53 11.79 3.43 5.71 8.36 9.71 14.79 12 6.43 2.28 13.5 3.14 21.21 2.57 7.72-0.57 15.68-2.32 23.89-5.25 8.22-2.93 15.82-6.75 22.82-11.46 7-4.72 13.04-10.11 18.11-16.18s8.39-12.47 9.97-19.18c1.28-6.14 1.21-11.25-0.22-15.32s-3.75-7.4-6.96-9.97c-3.22-2.57-7.04-4.53-11.47-5.89s-8.96-2.28-13.6-2.79c-4.65-0.5-9.22-0.75-13.72-0.75h-11.46l2.78-6.21c8.15-2.285 17.11-5.926 26.9-10.93 9.78-4.996 19.14-10.89 28.07-17.675 8.93-6.786 16.82-14.321 23.68-22.61 6.86-8.281 11.5-17 13.92-26.14-5.71-3.86-12.5-6.536-20.35-8.036-7.86-1.5035-16.18-1.7496-24.97-0.7496-8.78 0.9996-17.67 3.1446-26.67 6.4256-9 3.289-17.51 7.719-25.5 13.285-8.01 5.575-15.22 12.325-21.65 20.25-6.43 7.93-11.35 16.969-14.78 27.11-3.29-2.86-6.29-5.821-9-8.895-2.72-3.07-4.75-6.215-6.11-9.426-1.36-3.214-1.96-6.605-1.82-10.179 0.14-3.571 1.35-7.356 3.64-11.356 5.43-7.719 12.79-14.215 22.07-19.504 9.29-5.281 19.4-9.3552 30.33-12.211 10.92-2.8551 22.21-4.5738 33.85-5.1442 11.64-0.56636 22.68-0.03511 33.11 1.6094 10.43 1.6446 19.71 4.3203 27.85 8.0352 8.15 3.7146 14.15 8.4256 18 14.145 4 5.855 4.47 12.101 1.4 18.746-3.07 6.641-8.79 13.254-17.14 19.824-8.36 6.571-18.93 12.895-31.72 18.961-12.78 6.074-26.89 11.324-42.32 15.75 6.14-0.43 12.32-0.711 18.54-0.855 6.21-0.141 11.92 0.394 17.14 1.605 5.21 1.215 9.71 3.325 13.5 6.325 3.78 3 6.25 7.36 7.39 13.07 1.29 7.28 0.89 14.36-1.18 21.21-2.07 6.86-5.43 13.25-10.07 19.18s-10.36 11.36-17.14 16.29c-6.79 4.93-14.22 9.14-22.29 12.64s-16.57 6.21-25.5 8.14c-8.92 1.93-17.82 2.9-26.67 2.9-9.15 0-17.54-1.33-25.18-3.97-7.65-2.64-14.04-6.43-19.18-11.36-5.14-4.92-8.89-10.85-11.25-17.78s-2.82-14.68-1.39-23.25"
       id="path40"
       style="fill:#ffffff" />
    <path
       d="m54.23 130.59c-10.988 7.03-23.73 10.87-38.23 11.53-2.859 0.44-5.465 0.42-7.8281-0.08-2.3633-0.49-4.3125-1.51-5.8477-3.05-1.207-1.31-1.9531-2.91-2.2265-4.78-0.27348-1.86 0.0273-3.84 0.9062-5.93 1.207-2.85 3.3203-5.41 6.3438-7.66 3.0193-2.25 6.8403-3.98 11.453-5.19 3.734-0.99 7.441-1.34 11.125-1.07 3.676 0.27 7.437 1.02 11.285 2.22 2.641-4.06 5.027-8.84 7.168-14.34 2.144-5.486 4.176-11.283 6.101-17.381 1.918-6.097 3.84-12.3 5.762-18.621 1.926-6.316 3.903-12.386 5.938-18.207 2.031-5.824 4.226-11.179 6.59-16.066 2.359-4.891 5.027-8.93 7.992-12.117 1.648-1.754 3.679-3.02 6.097-3.789 2.418-0.766 4.887-1.153 7.414-1.153 2.524 0 4.973 0.246 7.337 0.742 2.36 0.493 4.31 1.18 5.85 2.059 1.54 0.883 2.49 1.813 2.88 2.801 0.39 0.992-0.08 1.926-1.4 2.804-2.96 1.868-5.47 5.165-7.5 9.887-2.03 4.723-3.952 10.242-5.764 16.563-1.813 6.316-3.653 13.129-5.52 20.429-1.871 7.309-4.094 14.45-6.676 21.426-2.582 6.977-5.714 13.483-9.39 19.523-3.684 6.05-8.219 10.99-13.598 14.84 5.051 3.73 10.383 7.55 15.985 11.45 5.605 3.9 11.48 7.55 17.632 10.96 6.151 3.4 12.581 6.45 19.281 9.14s13.62 4.7 20.76 6.02c7.14 1.31 14.56 1.81 22.25 1.48s15.55-1.76 23.56-4.28c1.1-0.34 1.95 0.68 2.56 3.04 0.6 2.36 0.66 5.11 0.16 8.25-0.49 3.12-1.75 6.14-3.79 9.06-2.03 2.91-5.19 4.8-9.47 5.68-6.37 1.32-12.83 1.21-19.37-0.33-6.53-1.54-13.12-3.9-19.77-7.08-6.65-3.19-13.29-6.98-19.94-11.37-6.64-4.4-13.184-8.9-19.61-13.52-6.425-4.61-12.687-9.03-18.785-13.26-6.097-4.23-12.004-7.77-17.715-10.63"
       id="path42"
       style="fill:#ffffff" />
    <path
       d="m145.52 68.961c-0.55-1.32-1.43-1.981-2.63-1.981-1.54-0.109-3.25 0.579-5.12 2.059-1.86 1.484-3.86 3.625-6.01 6.426-2.14 2.805-4.37 6.262-6.67 10.383-2.31 4.121-4.62 8.707-6.93 13.761-1.42 3.191-2.61 6.621-3.54 10.301s-1.46 7.2-1.56 10.54c-0.11 3.36 0.22 6.3 0.99 8.82 0.77 2.53 2.14 4.18 4.11 4.94 1.54 0.67 3.16 0.5 4.87-0.49 1.7-0.99 3.4-2.53 5.11-4.61 1.7-2.09 3.46-4.62 5.27-7.59 1.81-2.96 3.57-6.06 5.27-9.31 1.71-3.23 3.35-6.48 4.95-9.72 1.59-3.236 3.1-6.232 4.53-8.978 1.54-3.625 3.05-7.059 4.53-10.301 1.49-3.238 2.72-6.149 3.71-8.734 0.99-2.579 1.65-4.778 1.98-6.59 0.32-1.813 0.16-3.047-0.5-3.707-0.77-0.66-0.41-1.426 1.07-2.309 1.48-0.875 3.32-1.371 5.52-1.48 2.2-0.11 4.48 0.382 6.84 1.48 2.36 1.102 4.04 3.293 5.03 6.594 0.99 3.183 0.82 7.058-0.5 11.613-1.32 4.563-3.16 9.313-5.52 14.258-2.36 4.941-4.89 9.834-7.58 14.664-2.69 4.84-4.94 9.15-6.76 12.94-1.8 3.79-2.85 6.81-3.12 9.06-0.28 2.25 0.84 3.27 3.37 3.05 0.99-0.11 2.36-0.99 4.12-2.64 1.76-1.64 3.68-3.76 5.77-6.34s4.26-5.46 6.51-8.65 4.34-6.37 6.26-9.56c1.92-3.18 3.65-6.21 5.19-9.063 1.54-2.856 2.64-5.219 3.3-7.086 0.33-0.879 0.88-1.426 1.65-1.649 0.77-0.218 1.48-0.218 2.14 0 0.66 0.223 1.18 0.661 1.56 1.317 0.39 0.66 0.36 1.379-0.08 2.144-0.88 1.868-2.14 4.422-3.79 7.657-1.65 3.25-3.6 6.71-5.85 10.39s-4.69 7.39-7.33 11.12c-2.64 3.74-5.36 7.15-8.16 10.22s-5.63 5.6-8.48 7.58c-2.86 1.97-5.61 2.96-8.25 2.96-4.17 0.23-7.3-1.48-9.39-5.11-2.09-3.62-2.86-8.23-2.31-13.84-2.08 3.41-4.28 6.51-6.59 9.31-2.3 2.8-4.8 5.03-7.5 6.68-2.69 1.65-5.54 2.63-8.56 2.96-3.03 0.34-6.35-0.27-9.97-1.81-4.4-1.75-7.556-4.34-9.478-7.74-1.922-3.41-3.051-7.11-3.379-11.13-0.332-4 0-8.18 0.989-12.52 0.988-4.34 2.199-8.32 3.625-11.949 2.633-6.699 5.573-12.442 8.813-17.223 3.24-4.773 6.67-8.676 10.3-11.695 3.63-3.024 7.36-5.195 11.21-6.512 3.84-1.316 7.74-1.922 11.7-1.812 1.32 0.113 2.72 0.359 4.2 0.742 1.48 0.387 2.85 1.015 4.12 1.894 1.26 0.879 2.33 2.063 3.22 3.543 0.87 1.485 1.31 3.324 1.31 5.52"
       id="path44"
       style="fill:#ffffff" />
    <path
       d="m411.44 95.852c-1.05-1.848-2.28-2.774-3.66-2.774-1.39 0-2.87 0.567-4.45 1.684-1.59 1.125-3.21 2.64-4.85 4.554-1.66 1.914-3.27 3.864-4.86 5.844-2.77 3.56-5.44 7.69-8.02 12.38-2.57 4.68-4.85 9.5-6.83 14.45s-3.56 9.83-4.75 14.65-1.82 9.21-1.88 13.17c-0.07 3.96 0.49 7.23 1.68 9.8 1.19 2.58 3.17 4.13 5.95 4.66 1.97 0.39 4.18-0.5 6.62-2.68 2.45-2.18 4.89-4.98 7.33-8.41s4.82-7.16 7.13-11.19 4.32-7.76 6.04-11.19c-2.77-1.19-4.69-3.13-5.74-5.84-1.06-2.7-1.38-5.44-0.99-8.22 0.39-2.77 1.45-5.21 3.17-7.33 1.71-2.11 3.89-3.16 6.53-3.16 0.93 0 2.11 0.07 3.57 0.2 1.45 0.13 2.7 0.82 3.76 2.07 1.05 1.26 1.65 3.27 1.78 6.04 0.13 2.78-0.59 6.8-2.18 12.08 5.28-0.13 9.51-0.85 12.67-2.18 3.17-1.31 5.65-2.77 7.43-4.35 1.78-1.59 2.97-3.13 3.56-4.65 0.6-1.52 1.03-2.48 1.29-2.87 0.4-0.93 1.02-1.49 1.88-1.69s1.68-0.1 2.48 0.3c0.79 0.39 1.38 1.02 1.78 1.88s0.4 1.81 0 2.87c-1.06 2.51-2.71 4.82-4.95 6.93-2.25 2.11-4.85 3.9-7.82 5.35s-6.27 2.57-9.9 3.36c-3.63 0.8-7.3 1.13-10.99 1-1.85 4.09-4.2 8.64-7.03 13.66-2.84 5.02-6.11 9.67-9.8 13.96-3.7 4.29-7.76 7.82-12.18 10.59s-9.14 3.96-14.16 3.57c-6.6-0.66-11.78-3.44-15.55-8.32-3.76-4.89-5.77-10.82-6.04-17.82-0.12-5.28 0.4-10.79 1.59-16.54 1.18-5.74 2.97-11.38 5.34-16.93 2.38-5.54 5.28-10.79 8.72-15.74 3.43-4.95 7.29-9.274 11.59-12.969 4.28-3.696 8.97-6.535 14.05-8.516 5.08-1.98 10.4-2.84 15.94-2.574 2.51 0.133 4.59 0.691 6.24 1.684 1.65 0.988 3 2.175 4.06 3.566 1.06 1.383 1.85 2.902 2.38 4.551 0.52 1.652 0.92 3.203 1.18 4.652"
       id="path46"
       style="fill:#ffffff" />
    <path
       d="m529.56 59.516c-5.22 1.125-10.99 2.078-17.33 2.871-6.33 0.793-12.93 1.258-19.8 1.386-2.77 7.129-6.11 14.852-10 23.168-3.89 8.317-7.79 16.599-11.68 24.849s-7.66 16.17-11.29 23.76c-3.63 7.6-6.53 14.26-8.71 20-2.18 5.75-3.5 10.33-3.96 13.77-0.47 3.43 0.5 5.02 2.87 4.75 1.32-0.13 3-1.19 5.05-3.17s4.33-4.52 6.83-7.62c2.51-3.1 5.08-6.57 7.72-10.4s5.15-7.65 7.53-11.49c2.37-3.82 4.49-7.45 6.33-10.88 1.85-3.44 3.18-6.28 3.97-8.52 0.39-1.05 1.05-1.71 1.98-1.98 0.92-0.26 1.78-0.26 2.57 0 0.79 0.27 1.42 0.79 1.88 1.58 0.46 0.8 0.43 1.66-0.1 2.58-1.06 2.24-2.57 5.31-4.55 9.21-1.98 3.89-4.33 8.05-7.03 12.47-2.71 4.43-5.64 8.88-8.81 13.37s-6.44 8.58-9.8 12.27c-3.37 3.7-6.77 6.74-10.2 9.11-3.44 2.38-6.73 3.57-9.91 3.57-2.64 0.13-4.91-0.4-6.83-1.58-1.91-1.2-3.46-2.88-4.65-5.05-1.19-2.18-1.98-4.82-2.38-7.93-0.39-3.1-0.39-6.43 0-10 0.54-4.09 2.08-9.86 4.66-17.32 2.57-7.46 5.64-15.65 9.2-24.56 3.57-8.91 7.36-18.082 11.4-27.519 4.02-9.441 7.75-18.25 11.18-26.438-6.86 0-13.4 0.098-19.6 0.297-6.21 0.196-11.65 0.758-16.34 1.684-4.68 0.922-8.45 2.277-11.29 4.058-2.83 1.782-4.32 4.196-4.45 7.227-0.13 1.852-0.64 3.07-1.55 3.664-0.9 0.594-1.9 0.531-2.99-0.195-1.1-0.727-2-2.113-2.71-4.16s-0.94-4.786-0.67-8.219c0.51-5.543 2.65-9.77 6.42-12.672s8.66-4.852 14.66-5.844c6.02-0.988 12.81-1.351 20.4-1.086 7.59 0.266 15.28 0.114 24.22 0.114 2.24-5.942 3.34-9.356 4.4-13.184 1.05-3.828 1.25-6.07 0.59-6.734-0.93-0.793-0.5-1.711 1.29-2.774 1.78-1.054 3.99-1.644 6.63-1.777s5.38 0.461 8.22 1.777c2.84 1.321 4.85 3.961 6.03 7.922 0.66 1.852 0.73 4.356 0.2 7.527-0.52 3.164-1.38 6.731-2.57 10.692 5.81 0.265 11.61 0.265 17.43 0 5.8-0.266 11.02-0.758 15.64-1.485"
       id="path48"
       style="fill:#ffffff" />
    <path
       d="m458.07 55.457c3.76-2.902 8.65-4.852 14.66-5.844 6-0.988 12.81-1.351 20.39-1.086 7.59 0.266 15.48 0.789 23.67 1.582 2.24-5.941 3.89-10.824 4.94-14.652 1.06-3.828 1.26-6.07 0.6-6.734-0.92-0.793-0.49-1.711 1.29-2.774 1.78-1.054 3.99-1.644 6.63-1.777s5.38 0.461 8.22 1.777c2.83 1.321 4.85 3.961 6.04 7.922 0.66 1.852 0.72 4.356 0.2 7.527-0.53 3.164-1.39 6.731-2.58 10.692 5.81 0.265 11.62 0.265 17.43 0 5.81-0.266 11.02-0.758 15.64-1.485 4.62-0.726 8.35-1.683 11.19-2.871 2.84-1.187 4.25-2.64 4.25-4.355 0-1.981 0.6-3.004 1.79-3.07 1.19-0.067 2.37 0.429 3.56 1.48 1.19 1.063 2.01 2.449 2.48 4.164 0.46 1.715-0.1 3.301-1.68 4.75-1.72 1.719-4.46 3.336-8.22 4.852-3.77 1.519-8.25 2.84-13.47 3.961-5.21 1.125-10.99 2.078-17.32 2.871-6.34 0.793-12.94 1.258-19.8 1.386-2.78 7.129-6.11 14.852-10 23.168-3.9 8.317-7.8 16.599-11.69 24.849-3.9 8.25-7.65 16.17-11.29 23.76-3.63 7.6-6.53 14.26-8.71 20-2.18 5.75-3.5 10.33-3.96 13.77-0.46 3.43 0.49 5.02 2.87 4.75 1.32-0.13 3-1.19 5.05-3.17s4.32-4.52 6.83-7.62 5.08-6.57 7.73-10.4c2.64-3.83 5.15-7.65 7.52-11.49 2.38-3.82 4.49-7.45 6.34-10.88 1.85-3.44 3.17-6.28 3.96-8.52 0.39-1.05 1.05-1.71 1.98-1.98 0.92-0.26 1.78-0.26 2.57 0 0.8 0.27 1.42 0.79 1.88 1.58 0.47 0.8 0.43 1.66-0.1 2.58-1.05 2.24-2.57 5.31-4.55 9.21-1.98 3.89-4.32 8.05-7.03 12.47-2.7 4.43-5.65 8.88-8.81 13.37-3.17 4.49-6.43 8.58-9.8 12.27-3.37 3.7-6.77 6.74-10.2 9.11-3.43 2.38-6.73 3.57-9.9 3.57-2.64 0.13-4.92-0.4-6.83-1.58-1.92-1.2-3.47-2.88-4.66-5.05-1.18-2.18-1.98-4.82-2.37-7.93-0.4-3.1-0.4-6.43 0-10 0.53-4.09 2.08-9.86 4.65-17.32 2.58-7.46 5.65-15.65 9.21-24.56s7.36-18.082 11.38-27.519c4.03-9.441 7.76-18.25 11.19-26.438-6.86 0-13.4 0.098-19.6 0.297-6.21 0.196-11.65 0.758-16.34 1.684"
       id="path50"
       style="fill:#ffffff" />
    <path
       d="m553.22 132.68c-0.66 1.46-1.18 2.78-1.58 3.96 7.91-2.77 14.42-6.56 19.5-11.38s8.88-9.57 11.39-14.26c2.51-4.68 3.79-8.74 3.86-12.18 0.06-3.429-1.09-5.211-3.46-5.343-3.57-0.129-8.06 3.3-13.47 10.293-5.42 7-10.83 16.64-16.24 28.91zm58.02-12.47c1.58 1.06 1.98 2.51 1.19 4.35-2.25 4.76-4.92 9.74-8.02 14.96-3.11 5.21-6.61 10.29-10.5 15.24s-8.02 9.51-12.37 13.67c-4.36 4.16-8.88 7.55-13.57 10.19-4.68 2.65-9.47 4.36-14.35 5.15-4.89 0.79-9.71 0.2-14.46-1.78-5.28-2.11-9.07-5.18-11.39-9.21-2.3-4.02-3.66-8.48-4.06-13.37-0.39-4.88 0-9.93 1.19-15.14 1.19-5.22 2.65-10 4.36-14.36 3.17-8.05 6.7-14.88 10.6-20.5 3.89-5.61 8.02-10.191 12.37-13.758 4.36-3.562 8.84-6.203 13.47-7.918 4.62-1.714 9.3-2.574 14.05-2.574 4.89 0 8.48 1.188 10.8 3.563 2.31 2.379 3.47 5.48 3.47 9.308 0 3.829-1.07 8.059-3.18 12.669-2.11 4.62-5.11 9.15-9.01 13.57-3.89 4.42-8.61 8.45-14.15 12.08-5.55 3.63-11.75 6.37-18.62 8.21-0.92 3.44-1.58 6.83-1.98 10.2-0.39 3.36-0.46 6.44-0.19 9.21 0.25 2.77 0.88 5.08 1.88 6.93 0.99 1.85 2.47 2.97 4.45 3.37 2.9 0.53 6.04 0.1 9.4-1.29 3.37-1.39 6.8-3.46 10.3-6.24 3.5-2.77 6.94-6.01 10.3-9.7 3.37-3.69 6.54-7.59 9.51-11.68s5.61-8.15 7.91-12.18c2.31-4.03 4.13-7.75 5.45-11.19 0.4-1.05 1.09-1.78 2.08-2.18s2.01-0.26 3.07 0.4"
       id="path52"
       style="fill:#ffffff" />
  </g>
  <g
     clip-path="url(#clip1)"
     id="g58"
     style="fill:#ffffff">
    <path
       d="m627.08 211.3c-1.98 1.58-4.23 2.97-6.73 4.15l-7.53 3.57c-2.51 1.19-4.91 2.51-7.23 3.96-2.3 1.45-4.18 3.17-5.64 5.15-0.92 1.32-1.29 2.77-1.09 4.35 0.2 1.59 0.8 3 1.78 4.26 1 1.25 2.25 2.21 3.77 2.87s3.2 0.73 5.05 0.2c1.84-0.53 3.76-1.82 5.74-3.86 1.98-2.05 3.83-5.18 5.55-9.41 0.79-1.85 1.74-4.02 2.87-6.53 1.11-2.51 2.27-5.42 3.46-8.71zm32.28-115.45c-0.66-1.586-1.72-2.375-3.17-2.375-1.85-0.129-3.89 0.691-6.14 2.476-2.25 1.781-4.66 4.357-7.23 7.717-2.57 3.37-5.24 7.53-8.02 12.48-2.77 4.95-5.54 10.46-8.31 16.53-1.72 3.83-3.14 7.96-4.26 12.38s-1.75 8.65-1.88 12.67c-0.14 4.03 0.26 7.56 1.19 10.59 0.92 3.04 2.57 5.02 4.95 5.95 2.9 1.18 6 0.1 9.31-3.27 3.29-3.37 6.59-7.82 9.9-13.37 3.29-5.54 6.5-11.51 9.6-17.92 3.1-6.4 5.97-12.04 8.61-16.93 0-0.39 0.07-0.66 0.2-0.79 3.56-8.45 6.3-15.64 8.22-21.58 1.91-5.945 2.34-9.64 1.28-11.094-0.66-0.789-0.06-1.714 1.79-2.773 1.85-1.055 4.15-1.648 6.92-1.781 2.78-0.129 5.52 0.531 8.23 1.98 2.7 1.453 4.65 4.227 5.84 8.317 0.66 2.246 0.32 5.841-0.99 10.791-1.33 4.95-3.17 10.53-5.55 16.74-2.37 6.2-5.08 12.7-8.12 19.5-3.03 6.8-5.93 13.2-8.71 19.21-2.77 6-5.22 11.25-7.32 15.74-2.12 4.49-3.44 7.59-3.97 9.31 4.75-3.17 9.71-7.63 14.86-13.37 5.14-5.74 9.96-11.75 14.45-18.02s8.45-12.37 11.88-18.32c3.43-5.94 5.81-10.69 7.13-14.25 0.4-1.19 1.06-1.95 1.98-2.28s1.78-0.36 2.58-0.1c0.79 0.27 1.41 0.79 1.87 1.58 0.47 0.8 0.5 1.66 0.11 2.58-3.04 6.73-6.84 13.83-11.39 21.29-4.56 7.45-9.54 14.62-14.95 21.48s-11.09 13.04-17.03 18.51c-5.94 5.48-11.75 9.67-17.42 12.58-0.8 1.98-1.86 4.52-3.18 7.62s-2.67 6.24-4.05 9.41c-1.39 3.17-2.65 6.14-3.77 8.91s-1.95 4.82-2.47 6.14c-1.32 3.69-3.4 6.83-6.24 9.41-2.84 2.57-6.04 4.55-9.6 5.93-3.57 1.39-7.26 2.18-11.09 2.38s-7.4-0.2-10.7-1.19c-3.29-0.99-6.16-2.64-8.61-4.95-2.44-2.31-3.99-5.24-4.65-8.81-0.13-1.19 0.03-2.61 0.49-4.26s1.62-3.4 3.47-5.24c2.11-2.12 4.65-4.03 7.62-5.75s6.07-3.36 9.31-4.95c3.23-1.58 6.4-3.2 9.5-4.85s5.78-3.46 8.02-5.44c1.32-3.7 2.88-7.79 4.66-12.28s3.72-9.18 5.84-14.06c-3.83 3.7-8.02 6.17-12.58 7.43-4.55 1.25-9.67 0.75-15.34-1.49-5.29-2.11-9.08-5.21-11.39-9.31-2.31-4.09-3.66-8.54-4.06-13.36-0.39-4.82 0-9.84 1.19-15.05 1.19-5.22 2.64-10 4.36-14.36 3.17-8.05 6.7-14.95 10.59-20.69s8.02-10.427 12.38-14.06c4.35-3.633 8.84-6.238 13.46-7.824 4.62-1.582 9.31-2.309 14.06-2.176 1.59 0.133 3.27 0.43 5.05 0.891 1.78 0.465 3.43 1.219 4.95 2.277 1.52 1.055 2.8 2.477 3.86 4.258s1.58 3.992 1.58 6.633"
       fill="#171716"
       id="path56"
       style="fill:#ffffff" />
  </g>
  <g
     clip-path="url(#clip2)"
     id="g62"
     style="fill:#ffffff">
    <path
       d="m763.32 95.852c-0.66-1.586-1.72-2.375-3.17-2.375-1.85-0.129-3.9 0.691-6.14 2.476-2.25 1.781-4.65 4.357-7.23 7.717-2.57 3.37-5.24 7.53-8.01 12.48-2.78 4.95-5.55 10.46-8.32 16.53-1.72 3.83-3.14 7.96-4.26 12.38s-1.75 8.65-1.89 12.67c-0.13 4.03 0.27 7.56 1.2 10.59 0.91 3.04 2.57 5.02 4.95 5.95 1.84 0.79 3.79 0.59 5.84-0.6 2.04-1.19 4.09-3.03 6.14-5.55 2.04-2.5 4.15-5.53 6.33-9.1 2.18-3.56 4.29-7.29 6.34-11.19 2.04-3.89 4.02-7.79 5.94-11.68 1.91-3.89 3.73-7.49 5.44-10.79 1.85-4.36 3.67-8.48 5.45-12.38 1.78-3.89 3.27-7.39 4.46-10.5 1.18-3.097 1.97-5.738 2.37-7.918 0.4-2.175 0.2-3.66-0.6-4.453-0.92-0.793-0.49-1.714 1.29-2.773 1.78-1.055 3.99-1.648 6.64-1.781 2.64-0.129 5.37 0.465 8.21 1.781 2.84 1.324 4.86 3.961 6.04 7.922 1.2 3.828 1 8.482-0.59 13.962s-3.8 11.19-6.63 17.13c-2.85 5.94-5.88 11.81-9.11 17.62-3.24 5.81-5.94 10.99-8.12 15.55-2.18 4.55-3.44 8.18-3.77 10.88-0.32 2.71 1.02 3.94 4.07 3.67 1.19-0.13 2.83-1.19 4.95-3.17 2.11-1.98 4.41-4.52 6.93-7.62 2.5-3.1 5.11-6.57 7.82-10.4 2.7-3.83 5.21-7.65 7.52-11.49 2.31-3.82 4.39-7.45 6.24-10.88 1.85-3.44 3.17-6.28 3.96-8.52 0.4-1.05 1.06-1.71 1.98-1.98 0.93-0.26 1.79-0.26 2.57 0 0.8 0.27 1.43 0.79 1.89 1.58 0.46 0.8 0.43 1.66-0.1 2.58-1.06 2.24-2.57 5.31-4.56 9.21-1.98 3.89-4.32 8.05-7.03 12.47-2.7 4.43-5.64 8.88-8.81 13.37-3.16 4.49-6.43 8.58-9.8 12.27-3.37 3.7-6.77 6.74-10.2 9.11-3.43 2.38-6.73 3.57-9.9 3.57-5.01 0.26-8.78-1.78-11.28-6.14-2.51-4.36-3.44-9.91-2.78-16.64-2.51 4.1-5.15 7.83-7.92 11.2-2.77 3.36-5.78 6.03-9.01 8.01-3.23 1.99-6.66 3.17-10.3 3.57-3.63 0.39-7.62-0.33-11.97-2.18-5.28-2.11-9.08-5.21-11.39-9.31-2.31-4.09-3.66-8.54-4.06-13.36-0.39-4.82 0-9.84 1.19-15.05 1.19-5.22 2.64-10 4.35-14.36 3.17-8.05 6.7-14.95 10.6-20.69 3.89-5.74 8.02-10.427 12.37-14.06 4.36-3.633 8.85-6.238 13.47-7.824 4.62-1.582 9.31-2.309 14.06-2.176 1.59 0.133 3.27 0.43 5.05 0.891 1.78 0.465 3.43 1.219 4.95 2.277 1.52 1.055 2.8 2.477 3.86 4.258 1.05 1.781 1.59 3.992 1.59 6.633"
       fill="#171716"
       id="path60"
       style="fill:#ffffff" />
  </g>
</svg>
